<?xml version="1.0" encoding="utf-8"?>
<!-- Generator: Adobe Illustrator 27.0.0, SVG Export Plug-In . SVG Version: 6.00 Build 0)  -->
<svg version="1.1" id="Layer_1" xmlns="http://www.w3.org/2000/svg" xmlns:xlink="http://www.w3.org/1999/xlink" x="0px" y="0px"
	 viewBox="0 0 512 512" style="enable-background:new 0 0 512 512;" xml:space="preserve">
<style type="text/css">
	.st0{fill:#231F20;}
</style>
<g id="XMLID_1_">
	<path id="XMLID_3_" class="st0" d="M257.4,202.7c0.42-0.7,1.68-0.28,2.67-0.14c1.26,0,0.98,1.82,2.67,1.54
		c1.68-0.42,1.68,1.54,4.07,1.54c2.38-0.14-0.42,0.84-0.42,0.84s-1.54-0.7-2.52-0.28c-0.56,0.28,0.14-0.14-0.7-0.84
		c-1.26-1.12-1.12,0.14-3.37-1.68C258.24,202.28,256.7,203.68,257.4,202.7"/>
	<path id="XMLID_4_" class="st0" d="M239.17,205.22c-1.4-2.38-0.42-5.19,1.26-8c1.26-2.1,4.35-2.95,7.15-1.96
		c3.09-2.52,3.93,0.14,6.59-0.98c3.65-1.54,1.54,4.21,5.05,5.61c1.4-3.93-3.37-6.73-0.28-8.56c2.1-1.26,3.79-2.1,4.63-3.79
		c1.26-2.52,1.68-4.35,2.67-4.63c2.24-0.7,1.68-2.81,1.68-2.81s2.38,0.7,4.21-0.98c-1.4-0.7-3.51-1.4-2.95-2.95
		c0.7-1.82,5.33,1.82,6.73-1.12c-2.81-1.26-5.75-3.93-7.43-4.49c-1.12,1.26-1.96,0.84-3.51-0.42c-2.52-2.1-2.81-0.14-4.35-1.54
		c-1.26,2.52,0.7,2.38,1.26,3.09c1.68,1.82-1.68-1.68-1.4,2.95c0.14,1.26-1.68,1.4-2.95-1.12c-0.7-1.4-6.17-1.12-7.01-2.38
		c0.7-1.54,7.15-6.87,17.11-5.61c-14.31-5.61-33.81,0.56-33.95,2.67c-1.96,1.26-1.26,2.67-2.24,2.95c-1.68,0.56-3.51,5.61-3.51,5.61
		s0.98,0.7-2.24,4.35c-2.67,2.95-3.51,7.57-3.51,7.57s1.82,3.23,1.4,7.01c-0.28,2.81-0.42,0.7,0.84,2.81
		c0.7,1.26,1.54,5.47,1.96,3.79c0.98-3.09-1.68-6.03-1.26-9.12c0.14,0.42,0.98-1.26,0.98,0.28c-0.14,3.79,4.77,11.22,4.77,11.22
		s-1.82,1.82,0.14,1.82l-0.42,1.12c0,0,1.4-0.14,2.24,0.7c0.84,0.7,1.68,1.68,2.52,1.68h13.89c0,0,0.98-4.21,1.82-4.91
		c0.84-0.7-1.68,0-2.38-0.7s-1.12,0.56-1.54,1.4c-0.42,0.7-0.84,1.96-1.82,2.38c-1.12,0.42-3.65,0.56-4.21,0.56
		C240.85,208.17,239.17,205.22,239.17,205.22"/>
	<path id="XMLID_5_" class="st0" d="M304.39,250.25c-0.56-0.7,0.14-1.82,0.14-1.82H265.4l4.35,3.79c0.98,0.42,2.1,1.4,2.67,2.81
		c1.26,3.51-0.7,0.7-0.7,5.89c0,4.77-1.4,4.07-1.4,4.07s-0.28,5.75-3.23,9.26c-1.82,1.82-0.42,3.51-0.42,3.51s-0.7,0.42-1.54,4.49
		c-0.28,1.4,1.4,3.37,2.95,2.95c1.12-0.42-2.67-0.7,1.4-2.52c1.54-0.7,0.28-1.96,0.28-1.96s2.67-0.14,4.21-4.21
		c2.67,0.42,1.68-1.26,7.15-2.38c1.4-0.28,1.82-0.7,1.54-2.1c-0.14-1.4,1.82,0.14,7.29-5.33c4.35-4.35,2.81-5.33,5.75-7.01
		c3.09-1.68,3.37,0.14,4.49-1.26c2.38-3.09,1.54-2.95,2.52-4.91l0.7-1.12C303.41,252.35,304.82,250.95,304.39,250.25"/>
	<polygon id="XMLID_6_" class="st0" points="276.9,208.45 276.06,209.01 275.92,208.17 	"/>
	<path id="XMLID_7_" class="st0" d="M273.81,207.75c-1.4,0.28-2.95,0-4.21,0.98l-0.84-0.7h-0.56c1.26-0.98-0.7-2.1,1.4-2.1
		C271.29,206.06,272.41,207.18,273.81,207.75"/>
	<path id="XMLID_10_" class="st0" d="M189.65,209.01c9.12-28.05,30.44-49.66,66.35-49.66c33.24,0,57.79,21.88,66.63,50.22
		C313.37,183.2,287,164.12,256,164.12C225.14,164.26,199.05,182.92,189.65,209.01 M322.35,251.93
		c-8.98,28.05-34.37,49.94-66.49,49.94c-34.09,0-56.95-21.6-66.21-49.24c9.54,25.81,35.63,44.47,66.21,44.47
		C286.86,296.82,312.95,278.02,322.35,251.93"/>
	<path id="XMLID_11_" class="st0" d="M136.07,215.88h-10.94l1.68,1.96v14.31c0,3.23-2.1,4.63-5.33,4.63s-5.33-1.4-5.33-4.63v-14.31
		l1.68-1.96h-10.94l1.68,1.96v14.59c0,7.15,4.07,9.96,13.05,9.96s13.05-2.81,13.05-9.96v-14.59L136.07,215.88"/>
	<polygon id="XMLID_12_" class="st0" points="173.94,215.88 164.82,215.88 166.36,217.85 166.36,230.89 153.18,215.88 144.9,215.88 
		146.59,217.85 146.59,239.87 144.9,241.83 154.16,241.83 152.48,239.87 152.48,226.54 166.51,241.83 172.4,241.83 172.4,217.85 	
		"/>
	<polygon id="XMLID_13_" class="st0" points="195.26,241.83 193.58,239.87 193.58,217.85 195.26,215.88 184.18,215.88 
		185.86,217.85 185.86,239.87 184.18,241.83 	"/>
	<polygon id="XMLID_14_" class="st0" points="231.45,215.88 222.19,215.88 223.88,217.85 217.28,232.15 211.11,217.85 
		212.66,215.88 201.85,215.88 213.92,241.83 219.25,241.83 	"/>
	<polygon id="XMLID_15_" class="st0" points="262.45,241.83 262.45,234.82 260.49,236.36 247.16,236.36 247.16,231.45 
		255.58,231.45 257.54,233.14 257.54,224.58 255.58,226.26 247.16,226.26 247.16,221.35 260.49,221.35 262.45,222.9 262.45,215.88 
		238.04,215.88 239.59,217.85 239.59,239.87 238.04,241.83 	"/>
	<path id="XMLID_18_" class="st0" d="M290.65,224.3c0,1.82-1.82,3.37-4.21,3.37h-4.91v-6.31h5.89
		C288.96,221.35,290.65,222.19,290.65,224.3 M299.48,241.83l-7.01-10.24c3.51-1.4,5.89-4.07,5.89-7.86c0-4.35-2.67-7.86-10.1-7.86
		h-16.13l1.68,1.96v22.02l-1.68,1.96h10.8l-1.68-1.96v-7.29h3.23l4.91,7.29l-1.68,1.96L299.48,241.83"/>
	<path id="XMLID_19_" class="st0" d="M332.31,234.26c0-4.07-3.37-6.45-8.14-8c-3.09-0.98-7.43-1.68-7.43-3.79
		c0-0.98,1.26-1.68,3.37-1.68c2.81,0,7.43,1.12,10.94,2.81v-8.7l-2.1,1.96c-2.24-0.84-5.89-1.82-8.56-1.82
		c-8.84,0-11.64,3.93-11.64,7.43c0,4.77,3.23,6.87,8.14,8.7c3.79,1.26,7.15,1.4,7.15,3.51c0,1.82-2.1,2.1-3.23,2.1
		c-2.81,0-7.72-0.98-12.06-3.79v9.54l2.1-2.24c1.96,0.84,6.59,2.1,10.24,2.1C328.94,242.53,332.31,239.17,332.31,234.26"/>
	<path id="XMLID_22_" class="st0" d="M358.68,232.43h-8.56l4.21-9.26L358.68,232.43z M371.16,241.83l-12.76-25.95h-8.7l0.98,1.96
		l-11.5,23.99h9.54l-1.68-1.96l1.26-2.67h12.34l1.26,2.67l-1.68,1.96H371.16z"/>
	<polygon id="XMLID_23_" class="st0" points="401.88,241.83 401.88,234.82 399.92,236.36 387.44,236.36 387.44,217.85 
		389.12,215.88 378.18,215.88 379.86,217.85 379.86,239.87 378.18,241.83 	"/>
	<path id="XMLID_26_" class="st0" d="M396.41,221.49c0-2.81,2.38-5.19,5.19-5.19s5.19,2.24,5.19,5.19c0,2.81-2.38,5.19-5.19,5.19
		C398.66,226.68,396.41,224.3,396.41,221.49 M396.84,221.49c0,2.52,2.1,4.63,4.63,4.63c2.52,0,4.63-2.1,4.63-4.63
		c0-2.52-2.1-4.63-4.63-4.63C398.94,216.86,396.84,218.97,396.84,221.49"/>
	<path id="XMLID_27_" class="st0" d="M403.57,219.53c-0.56-0.42-1.12-0.7-1.82-0.7c-1.54,0-2.67,1.12-2.67,2.67
		c0,1.54,1.12,2.67,2.67,2.67c0.7,0,1.4-0.28,1.82-0.7v-0.7c-0.42,0.56-1.12,0.98-1.96,0.98c-1.26,0-2.1-1.12-2.1-2.24
		s0.84-2.24,2.1-2.24c0.7,0,1.4,0.28,1.82,0.84v-0.56"/>
	<path id="XMLID_28_" class="st0" d="M18.52,335.82v9.82c0,4.77-2.67,6.73-8.7,6.73c-6.03,0-8.7-1.82-8.7-6.73v-9.82L0,334.55h7.29
		l-1.12,1.26v9.68c0,2.1,1.4,3.09,3.65,3.09c2.1,0,3.65-0.98,3.65-3.09v-9.68l-1.12-1.26h7.29L18.52,335.82"/>
	<polygon id="XMLID_29_" class="st0" points="46.85,335.82 46.85,352.09 42.92,352.09 33.39,341.71 33.39,350.68 34.51,352.09 
		28.34,352.09 29.46,350.68 29.46,335.82 28.34,334.55 33.95,334.55 42.78,344.65 42.78,335.82 41.66,334.55 47.83,334.55 	"/>
	<polygon id="XMLID_30_" class="st0" points="57.37,352.09 58.49,350.68 58.49,335.82 57.37,334.55 64.81,334.55 63.68,335.82 
		63.68,350.68 64.81,352.09 	"/>
	<polygon id="XMLID_31_" class="st0" points="83.74,352.09 80.24,352.09 72.1,334.55 79.4,334.55 78.27,335.82 82.48,345.49 
		86.97,335.82 85.85,334.55 92.02,334.55 	"/>
	<polygon id="XMLID_32_" class="st0" points="99.03,352.09 100.16,350.68 100.16,335.82 99.03,334.55 115.59,334.55 115.59,339.32 
		114.18,338.2 105.35,338.2 105.35,341.57 110.96,341.57 112.22,340.44 112.22,346.2 110.96,345.07 105.35,345.07 105.35,348.44 
		114.18,348.44 115.59,347.32 115.59,352.09 	"/>
	<path id="XMLID_35_" class="st0" d="M134.94,338.2h-3.93v4.35h3.37c1.68,0,2.81-0.98,2.81-2.24
		C137.19,338.76,136.07,338.2,134.94,338.2 M135.5,352.09l1.12-1.26l-3.37-4.91h-2.24v4.91l1.12,1.26h-7.29l1.12-1.26v-14.87
		l-1.12-1.26h10.94c4.91,0,6.73,2.38,6.73,5.33c0,2.52-1.68,4.35-3.93,5.33l4.77,6.87h-7.86"/>
	<path id="XMLID_36_" class="st0" d="M160.61,352.51c-2.52,0-5.61-0.84-6.87-1.4l-1.4,1.54v-6.45c2.95,1.96,6.17,2.52,8.14,2.52
		c0.7,0,2.1-0.14,2.1-1.4c0-1.4-2.38-1.54-4.77-2.38c-3.37-1.12-5.47-2.52-5.47-5.89c0-2.38,1.96-5.05,7.86-5.05
		c1.82,0,4.35,0.56,5.75,1.26l1.4-1.4v5.89c-2.38-1.12-5.47-1.96-7.43-1.96c-1.4,0-2.24,0.42-2.24,1.12c0,1.4,2.95,1.82,5.05,2.52
		c3.23,0.98,5.47,2.52,5.47,5.33C168.05,350.26,165.66,352.51,160.61,352.51"/>
	<path id="XMLID_39_" class="st0" d="M185.58,339.46l-2.81,6.31h5.75L185.58,339.46z M189.51,352.09l1.12-1.26l-0.84-1.82h-8.28
		l-0.84,1.82l1.12,1.26h-6.45l7.72-16.13l-0.7-1.26h5.89l8.56,17.39H189.51z"/>
	<polygon id="XMLID_40_" class="st0" points="204.24,352.09 205.36,350.68 205.36,335.82 204.24,334.55 211.53,334.55 
		210.55,335.82 210.55,348.44 218.83,348.44 220.23,347.32 220.23,352.09 	"/>
	<polygon id="XMLID_41_" class="st0" points="259.37,352.09 260.49,350.68 260.49,342.41 255.86,352.09 253.48,352.09 
		248.14,342.13 248.14,350.68 249.27,352.09 243.24,352.09 244.36,350.68 244.36,335.82 243.24,334.55 249.41,334.55 255.16,345.21 
		260.21,334.55 266.52,334.55 265.4,335.82 265.4,350.68 266.52,352.09 	"/>
	<path id="XMLID_42_" class="st0" d="M293.73,335.82v9.82c0,4.77-2.67,6.73-8.7,6.73c-6.03,0-8.7-1.82-8.7-6.73v-9.82l-1.12-1.26
		h7.29l-1.12,1.26v9.68c0,2.1,1.4,3.09,3.65,3.09c2.1,0,3.65-0.98,3.65-3.09v-9.68l-1.12-1.26h7.29L293.73,335.82"/>
	<path id="XMLID_43_" class="st0" d="M311.69,352.51c-2.52,0-5.61-0.84-6.87-1.4l-1.4,1.54v-6.45c2.95,1.96,6.17,2.52,8.14,2.52
		c0.7,0,2.1-0.14,2.1-1.4c0-1.4-2.38-1.54-4.77-2.38c-3.37-1.12-5.47-2.52-5.47-5.89c0-2.38,1.96-5.05,7.86-5.05
		c1.68,0,4.35,0.56,5.75,1.26l1.4-1.4v5.89c-2.38-1.12-5.47-1.96-7.43-1.96c-1.4,0-2.24,0.42-2.24,1.12c0,1.4,2.95,1.82,5.05,2.52
		c3.23,0.98,5.47,2.52,5.47,5.33C319.12,350.26,316.88,352.51,311.69,352.51"/>
	<polygon id="XMLID_44_" class="st0" points="328.38,352.09 329.5,350.68 329.5,335.82 328.38,334.55 335.82,334.55 334.69,335.82 
		334.69,350.68 335.82,352.09 	"/>
	<path id="XMLID_45_" class="st0" d="M354.61,352.37c-5.33,0-10.1-2.67-10.1-9.12c0-5.05,3.65-9.12,10.24-9.12
		c1.96,0,4.21,0.42,5.47,0.98l1.26-1.12v5.75c-1.82-1.12-3.93-1.82-6.31-1.82c-3.65,0-5.19,2.52-5.19,5.33
		c0,3.23,2.1,5.33,5.33,5.33s5.19-1.26,6.17-1.96v4.07C360.22,351.53,357.14,352.37,354.61,352.37"/>
	<path id="XMLID_46_" class="st0" d="M396.98,343.39h6.17v7.01c-1.54,0.98-4.91,1.96-8,1.96c-5.33,0-10.38-2.67-10.38-9.12
		c0-6.59,5.47-9.12,10.38-9.12c2.81,0,4.63,0.7,5.75,1.12l1.4-1.26v6.03c-1.82-0.98-4.07-1.96-6.87-1.96c-3.23,0-5.05,2.1-5.05,5.33
		s1.96,5.33,5.05,5.33c0.84,0,1.68-0.14,2.52-0.28v-3.65L396.98,343.39"/>
	<path id="XMLID_49_" class="st0" d="M421.8,338.2h-3.93v4.35h3.37c1.68,0,2.81-0.98,2.81-2.24
		C424.05,338.76,423.07,338.2,421.8,338.2 M422.36,352.09l1.12-1.26l-3.37-5.05h-2.24v4.91l1.12,1.26h-7.29l1.12-1.26v-14.87
		l-1.12-1.26h10.94c4.91,0,6.73,2.38,6.73,5.33c0,2.52-1.68,4.35-3.93,5.33l4.77,6.87L422.36,352.09"/>
	<path id="XMLID_52_" class="st0" d="M448.32,337.92c-3.23,0-4.63,2.1-4.63,5.33s1.26,5.47,4.63,5.47c3.23,0,4.63-2.24,4.63-5.47
		S451.68,337.92,448.32,337.92 M448.32,352.51c-4.91,0-10.1-2.52-10.1-9.12s5.19-9.12,10.1-9.12c4.91,0,10.1,2.52,10.1,9.12
		C458.42,349.84,453.23,352.51,448.32,352.51"/>
	<path id="XMLID_53_" class="st0" d="M484.65,335.82v9.82c0,4.77-2.67,6.73-8.7,6.73c-6.03,0-8.7-1.82-8.7-6.73v-9.82l-1.12-1.26
		h7.29l-1.12,1.26v9.68c0,2.1,1.4,3.09,3.65,3.09c2.1,0,3.65-0.98,3.65-3.09v-9.68l-1.12-1.26h7.29L484.65,335.82"/>
	<path id="XMLID_56_" class="st0" d="M503.44,338.2h-2.95v5.33h2.52c2.38,0,3.65-0.56,3.65-2.81
		C506.67,338.76,505.41,338.2,503.44,338.2 M503.58,346.9h-3.09v3.79l1.12,1.26h-7.29l1.12-1.26v-14.87l-1.12-1.26h9.4
		c3.51,0,8.28,0.98,8.28,5.75C512,345.92,507.79,346.9,503.58,346.9"/>
</g>
</svg>
