<?xml version="1.0" encoding="UTF-8"?>
<svg width="125px" height="23px" viewBox="0 0 125 23" version="1.1" xmlns="http://www.w3.org/2000/svg" xmlns:xlink="http://www.w3.org/1999/xlink">
    <!-- Generator: Sketch 62 (91390) - https://sketch.com -->
    <title>logo</title>
    <desc>Created with Sketch.</desc>
    <g id="logo" stroke="none" stroke-width="1" fill="none" fill-rule="evenodd">
        <path d="M2.83918,19.6344 C1.11196,17.8316 -0.00131631,15.2016 7.28839211e-12,11.9261 C7.28839211e-12,8.7903 1.08824,6.1462 2.78648,4.28627 C4.48471,2.42688 6.79558,1.35156 9.2316,1.35156 C13.6017,1.35972 16.6872,4.46977 16.703,7.159 C16.7017,8.596 15.8072,9.7089 14.5964,9.7123 C13.9983,9.7123 13.4396,9.5045 13.0273,9.1112 C12.6175,8.7178 12.3619,8.1428 12.3633,7.4414 C12.3619,6.6002 12.7862,6.0897 13.1024,5.7232 C12.5279,4.70922 11.391,3.87335 9.60972,3.87001 C8.0933,3.87201 6.81929,4.66947 5.89969,6.0783 C4.9814,7.4864 4.43992,9.5072 4.43992,11.8972 C4.43992,14.2823 5.00512,16.2956 5.94843,17.6978 C6.89307,19.1025 8.19474,19.8967 9.70985,19.9001 C11.4924,19.8961 12.6294,19.0696 13.2025,18.0481 C12.8837,17.689 12.4634,17.1752 12.4634,16.3407 C12.4634,15.6387 12.7163,15.0583 13.1274,14.665 C13.5398,14.2736 14.0997,14.0651 14.6965,14.0651 C15.9073,14.0651 16.7992,15.1726 16.8032,16.6077 C16.7887,19.311 13.7018,22.409 9.33436,22.4177 C6.90229,22.4177 4.56508,21.4366 2.83918,19.6344 Z M2.83918,19.6344 C1.11196,17.8316 -0.00131631,15.2016 7.28839211e-12,11.9261 C7.28839211e-12,8.7903 1.08824,6.1462 2.78648,4.28627 C4.48471,2.42688 6.79558,1.35156 9.2316,1.35156 C13.6017,1.35972 16.6872,4.46977 16.703,7.159 C16.7017,8.596 15.8072,9.7089 14.5964,9.7123 C13.9983,9.7123 13.4396,9.5045 13.0273,9.1112 C12.6175,8.7178 12.3619,8.1428 12.3633,7.4414 C12.3619,6.6002 12.7862,6.0897 13.1024,5.7232 C12.5279,4.70922 11.391,3.87335 9.60972,3.87001 C8.0933,3.87201 6.81929,4.66947 5.89969,6.0783 C4.9814,7.4864 4.43992,9.5072 4.43992,11.8972 C4.43992,14.2823 5.00512,16.2956 5.94843,17.6978 C6.89307,19.1025 8.19474,19.8967 9.70985,19.9001 C11.4924,19.8961 12.6294,19.0696 13.2025,18.0481 C12.8837,17.689 12.4634,17.1752 12.4634,16.3407 C12.4634,15.6387 12.7163,15.0583 13.1274,14.665 C13.5398,14.2736 14.0997,14.0651 14.6965,14.0651 C15.9073,14.0651 16.7992,15.1726 16.8032,16.6077 C16.7887,19.311 13.7018,22.409 9.33436,22.4177 C6.90229,22.4177 4.56508,21.4366 2.83918,19.6344 Z M2.83918,19.6344 C1.11196,17.8316 -0.00131631,15.2016 7.28839211e-12,11.9261 C7.28839211e-12,8.7903 1.08824,6.1462 2.78648,4.28627 C4.48471,2.42688 6.79558,1.35156 9.2316,1.35156 C13.6017,1.35972 16.6872,4.46977 16.703,7.159 C16.7017,8.596 15.8072,9.7089 14.5964,9.7123 C13.9983,9.7123 13.4396,9.5045 13.0273,9.1112 C12.6175,8.7178 12.3619,8.1428 12.3633,7.4414 C12.3619,6.6002 12.7862,6.0897 13.1024,5.7232 C12.5279,4.70922 11.391,3.87335 9.60972,3.87001 C8.0933,3.87201 6.81929,4.66947 5.89969,6.0783 C4.9814,7.4864 4.43992,9.5072 4.43992,11.8972 C4.43992,14.2823 5.00512,16.2956 5.94843,17.6978 C6.89307,19.1025 8.19474,19.8967 9.70985,19.9001 C11.4924,19.8961 12.6294,19.0696 13.2025,18.0481 C12.8837,17.689 12.4634,17.1752 12.4634,16.3407 C12.4634,15.6387 12.7163,15.0583 13.1274,14.665 C13.5398,14.2736 14.0997,14.0651 14.6965,14.0651 C15.9073,14.0651 16.7992,15.1726 16.8032,16.6077 C16.7887,19.311 13.7018,22.409 9.33436,22.4177 C6.90229,22.4177 4.56508,21.4366 2.83918,19.6344 Z M65.8306,12.6613 C66.1125,12.6553 66.1889,12.59 66.2442,12.4979 C66.2996,12.3991 66.3154,12.2068 66.3128,11.968 C66.2851,10.5895 65.2311,9.3125 63.6066,9.3125 C61.5606,9.3125 60.7319,10.9782 60.6028,12.6607 L65.8306,12.6607 L65.8306,12.6613 Z M25.2087,15.0621 C23.6409,15.079 22.5843,15.8288 22.5764,17.3115 C22.5856,18.7122 23.5157,19.6544 24.9768,19.6644102 C25.9241,19.6671 26.8925,19.1332 27.5051,18.3619 L27.5051,16.3102 C27.5051,16.0298 27.3246,15.7245 26.9373,15.4784 C26.5512,15.2349 25.9636,15.0621 25.2087,15.0621 Z M84.9552,14.2261 C84.9618,18.2004 86.66,19.9098 88.3266,19.9144 C90.2317,19.9124 91.6098,18.2024 91.6217033,14.8563 C91.623,13.1092 91.2422,11.7112 90.6217,10.765 C90.0012,9.8155 89.1514,9.3125 88.1751,9.3125 C86.1976,9.3152 84.9657,11.1335 84.9552,14.2261 Z M35.3863,21.7922 C34.7736,21.6206 34.381,21.2763 34.3823,20.7619 C34.3823,20.5581 34.4403,20.3423 34.547,20.1076 L34.58,20.0337 L34.659,20.0182 C34.8975,19.9704 35.2861,19.8521 35.6366,19.5783 C35.9949,19.2697 36.1399,18.8414 36.1438,17.6411 L36.1438,11.5923 C36.1135,10.5728 35.879,10.2163 35.0477,10.1928 C34.8593,10.1928 34.6393,10.2163 34.3863,10.2655 L34.2585,10.289 L34.2111,10.1674 C34.1202,9.9379 34.078,9.716 34.078,9.5083 C34.0991,8.3046 35.3994,7.686 36.2808,7.4089 C36.6247,7.3013 36.9462,7.2462 37.2452,7.2462 C38.4441,7.2435 39.0897,8.0994 39.369,9.1983 C40.1516,7.9179 41.3979,7.0685 42.6166,7.0632 C43.751,7.0659 44.9183,7.8258 44.9235,9.279 C44.9196,10.3086 44.2042,11.3898 43,11.3939 C42.1199,11.3946 41.3479,10.7994 41.1819,9.9246 C40.5007,10.1512 39.5363,11.0126 39.5258,13.9923 L39.5258,17.6411 C39.5298,18.8374 39.6984,19.2663 40.0528,19.5723 C40.3808,19.8379 41.087,19.9704 41.3426,20.0182 L41.4217,20.0337 L41.4546,20.1076 C41.5692,20.3624 41.6338,20.5918 41.6338,20.8096 C41.6377,21.2992 41.2754,21.6368 40.6944,21.8009 C40.1081,21.977 39.2531,22.0443 38.0897,22.0443 C36.9053,22.0443 36.0094,21.9737 35.3863,21.7922 Z M47.2727,21.7908 C46.6601,21.6192 46.2662,21.2749 46.2662,20.7606 C46.2701,20.5567 46.3268,20.341 46.4322,20.1062 L46.4677,20.0323 L46.5455,20.0168 C46.7852,19.969 47.1713,19.8507 47.5204,19.577 C47.8788,19.2683 48.025,18.84 48.0276,17.6397 L48.0276,11.5909 C47.9986,10.5714 47.7641,10.215 46.9341,10.1914 C46.7444,10.1914 46.5244,10.215 46.2714,10.2641 L46.1449,10.2877 L46.0975,10.166 C46.0053,9.9366 45.9631,9.7147 45.9631,9.5069 C45.9855,8.3032 47.2859,7.6846 48.1646,7.4075 C48.5098,7.2999 48.8313,7.2448 49.133,7.2448 C50.3306,7.2421 50.9762,8.0981 51.2555,9.201 C52.038,7.9166 53.2844,7.0672 54.5031,7.0625 C55.6348,7.0645 56.8034,7.8245 56.8073,9.2776 C56.8047,10.3072 56.0906,11.3884 54.8851,11.3926 C54.0037,11.3932 53.233,10.798 53.067,9.9232 C52.3872,10.1498 51.4201,11.0112 51.4109,13.9909 L51.4109,17.6397 C51.4162,18.836 51.5862,19.265 51.9379,19.571 C52.2699,19.8365 52.9721,19.969 53.229,20.0168 L53.3068,20.0323 L53.3397,20.1062 C53.4543,20.3597 53.5176,20.5905 53.5176,20.8082 C53.5242,21.2978 53.1605,21.6354 52.5795,21.7995 C51.9933,21.9756 51.1369,22.043 49.9775,22.043 C48.7905,22.043 47.8959,21.9723 47.2727,21.7908 Z M72.4247,21.7915 C71.8068,21.6172 71.4089,21.275 71.4102,20.7565 C71.4102,20.5554 71.4668,20.3389 71.5736,20.1062 L71.6065,20.0337 L71.6842,20.0182 C71.9253,19.9704 72.3113,19.8521 72.6631,19.5783 C73.0188,19.2697 73.1664,18.8414 73.1717,17.6411 L73.1717,9.6911 L71.0716,9.6166 L71.0347,9.5217 C70.9267,9.2595 70.874,9.0086 70.874,8.7733 C70.8753,7.9993 71.4642,7.4815 72.2007,7.4815 L73.1177,7.4815 L73.1177,6.6013 C73.1177,4.47487 73.5076,3.26383 74.0386,2.45219 C74.8567,1.1583 76.277,0.27063 78.4403,0.273433348 C81.1622,0.27612 83.4414,1.56252 83.4546,3.63164 C83.4533,4.52734 82.8407,5.6383 81.5614,5.6403 C80.6049,5.6363 79.7222,4.82395 79.7169,3.79039 C79.7182,3.4104 79.8408,3.02572 80.0265,2.73929 C79.742,2.48445 79.1965,2.33106 78.6708,2.33454 C77.8263,2.34123 77.3639,2.63636 77.0701,3.12932 C76.7763,3.62361 76.6788,4.34719 76.6801,5.1662 L76.6801,7.4539 L80.2834,7.4539 L80.3256,7.5521 C80.4336,7.819 80.485,8.0767 80.4824,8.3187 C80.485,9.1143 79.929,9.7093 79.2242,9.7759 C78.9581,9.8042 78.6708,9.8042 78.4166,9.8042 C77.8171,9.8042 77.2229,9.7611 76.7829,9.7524 L76.7829,17.6411 C76.7855,18.8339 76.9792,19.261 77.3336,19.5723 C77.6498,19.8305 78.543,19.9704 78.8052,20.0182 L78.883,20.0322 L78.9172,20.1076 C79.0134,20.3221 79.0648,20.5185 79.0648,20.7088 C79.0648,21.2534 78.6287,21.5985 77.9686,21.78 C77.3007,21.973 76.3508,22.0443 75.14,22.0443 C73.9529,22.0443 73.0518,21.9737 72.4247,21.7915 Z M115.301,21.7922 C114.687,21.6206 114.289,21.2783 114.292,20.7619 C114.292,20.5581 114.352,20.3423 114.458,20.1062 L114.491,20.0337 L114.567,20.0182 C114.798,19.9704 115.199,19.85 115.534,19.575 C115.902,19.2697 116.043,18.8421 116.043,17.6411 L116.043,11.5923 C116.015,10.5728 115.787,10.2163 114.954,10.1928 C114.767,10.1928 114.546,10.2163 114.292,10.2655 L114.165,10.289 L114.116,10.1674 C114.029,9.9393 113.987,9.7228 113.987,9.5197 C114.008,8.31 115.31,7.686 116.184,7.4089 C116.539,7.3013 116.85,7.2462 117.169,7.2462 C118.356,7.2435 119.003,8.1123 119.276,9.2286 C120.054,7.9293 121.295,7.0685 122.517,7.0632 C123.666,7.0659 124.818,7.8279 124.822,9.279 C124.821,10.3086 124.107,11.3878 122.916,11.3939 C122.029,11.3946 121.252,10.7994 121.081,9.9246 C120.406,10.1505 119.456,11.0106 119.444,13.9923 L119.444,17.6411 C119.45,18.8374 119.614,19.2697 119.945,19.5723 C120.291,19.8379 120.995,19.9704 121.24,20.0182 L121.318,20.0337 L121.351,20.1076 C121.467,20.3658 121.534,20.5978 121.534,20.8164 C121.536,21.3032 121.177,21.6394 120.6,21.8015 C120.016,21.977 119.164,22.0443 118.007,22.0443 C116.821,22.0443 115.923,21.9737 115.301,21.7922 Z M88.1752,22.2427 C86.1792,22.2427 84.3597,21.4794 83.0409,20.146 C81.7221,18.8131 80.9066,16.9073 80.9066,14.6398 C80.9145,10.1512 84.3861,7.0975 88.3016,7.0901 C90.4096,7.0901 92.237,7.8534 93.5334,9.1828 C94.8298,10.5123 95.5913,12.4053 95.5913,14.6398 C95.5913,16.8811 94.7968,18.7876 93.4675,20.1285 C92.1395,21.4687 90.2831,22.2427 88.1765,22.2427 L88.1752,22.2427 Z M56.8006,14.9276 C56.8006,12.6561 57.5358,10.6944 58.8216,9.3018 C60.1075,7.9071 61.9441,7.0881 64.1192,7.090096 C66.0994,7.0881 67.5671,7.8366 68.5289,8.9071 C69.4919,9.9784 69.9504,11.3629 69.9504,12.6392 C69.9504,13.3937 69.7936,14.0979 69.4695,14.6896 L69.4274,14.7717 L60.5739,14.7717 C60.7201,17.3936 62.3617,19.2254 65.2167,19.2348 C66.9729,19.2394 68.3246,18.2543 68.7752,17.6673 L68.8701,17.5441 L68.9926,17.637 C69.2482,17.8232 69.5236,18.1641 69.5183,18.8165 C69.5091,20.3275 67.7687,22.2636 63.9124,22.2662 C59.9929,22.2594 56.8072,19.0834 56.8006,14.9276 Z M107.864,21.6012 C107.604,21.2327 107.464,20.7653 107.341,20.2272 C107.196,20.3927 107.027,20.5716 106.77,20.8218 C105.82,21.7262 104.58,22.2729 103.183,22.2723 C101.658,22.2729 100.359,21.677 99.5319,20.6846 C98.2605,19.142 98.271,17.1844 98.2697,14.4052 L98.2697,11.7267 C98.242,10.6428 97.9074,10.2728 96.918,10.2453 C96.7915,10.2453 96.6505,10.2541 96.5003,10.2708 L96.3818,10.2843 L96.337,10.1714 C96.2592,9.9737 96.2223,9.7793 96.2223,9.5944 C96.254,8.2999 97.8652,7.6066 98.8112,7.4069 C99.1432,7.3558 99.4541,7.30128822 99.7571,7.30128822 C100.528,7.2993 101.1,7.5521 101.455,8.006 C101.815,8.4585 101.957,9.0827 101.957,9.8069 L101.932,14.3803 C101.931,16.0681 102.05,17.3324 102.417,18.1447 C102.789,18.9503 103.35,19.3302 104.387,19.341 C105.512,19.3362 106.192,18.8434 106.625,18.109 C107.061,17.3714 107.219,16.3801 107.218,15.4279 L107.218,11.7267 C107.192,10.6428 106.854,10.2708 105.868,10.2453 C105.737,10.2453 105.598,10.2541 105.45,10.2708 L105.33,10.2843 L105.285,10.1714 C105.208,9.9737 105.169,9.7793 105.169,9.5944 C105.202,8.2999 106.811,7.6066 107.763,7.4069 C108.092,7.3558 108.406,7.30128822 108.709,7.30128822 C109.48,7.2993 110.051,7.5521 110.41,8.006 C110.773,8.4585 110.915,9.0827 110.915,9.8062 C110.915,10.3306 110.865,11.2621 110.865,15.157 C110.865,16.8032 110.838,17.678 110.838,17.9437 C110.862,19.066 111.235,19.5696 112.255,19.5912 C112.363,19.5912 112.476,19.5824 112.601,19.5703 L112.719,19.5575 L112.762,19.6704 C112.84,19.8676 112.877,20.0558 112.877,20.2334 C112.838,21.4982 111.222,22.0046 110.286,22.1949 C109.962,22.2454 109.665,22.2958 109.401,22.2958 L109.381,22.2958 C108.658,22.2958 108.169,22.0362 107.864,21.6012 Z M18.7082913,17.5617 C18.7056,16.1226 19.3301,14.9572 20.3801,14.1711 C21.4289,13.3843 22.8939,12.9674 24.5921,12.9674 C25.6553,12.9694 26.7475,13.1664 27.5051,13.4986 L27.5051,11.8834 C27.4801,10.2554 26.8753,9.3315 25.0796,9.3099 C24.7436,9.3099 23.9927,9.4 23.3774,9.6126 C23.4354,9.8459 23.4723,10.0853 23.4723,10.3186 C23.4723,10.8625 23.301,11.3642 22.9782,11.7328 C22.6567,12.1006 22.1785,12.3266 21.6028,12.3266 C20.5672,12.3232 19.786,11.4691 19.782,10.3973 C19.8044,8.4203 22.1614,7.0908 25.3115,7.0901 C27.8094,7.0901 29.3772,7.6927 30.2165,8.7887 C30.9767,9.7725 31.0122,11.2089 31.0149,13.2364 L31.0149,18.5179 C31.0307,19.5414 31.5985,19.8198 32.8501,20.0162 L32.9937,20.035 L32.9845,20.1836 C32.912,21.5769 31.9042,22.1546 30.8212,22.2427 C30.7263,22.2514 30.6341,22.2554 30.5406,22.2554 C29.476,22.2574 28.4497,21.7255 27.9596,20.6435 C27.2903,21.2178 25.7779,22.289 23.824,22.291 C20.919,22.287 18.7135,20.2932 18.7082913,17.5617 Z" id="text" fill="#1B51BF"></path>
    </g>
</svg>