<?xml version="1.0" encoding="UTF-8"?>
<svg width="52px" height="35px" viewBox="0 0 52 35" version="1.1" xmlns="http://www.w3.org/2000/svg" xmlns:xlink="http://www.w3.org/1999/xlink">
    <!-- Generator: Sketch 62 (91390) - https://sketch.com -->
    <title>visual</title>
    <desc>Created with Sketch.</desc>
    <g id="visual" stroke="none" stroke-width="1" fill="none" fill-rule="evenodd">
        <path d="M14.834,0.99624 C14.921,0.906965 15.006,0.871094 15.079,0.871094 C15.208,0.871094 15.299,0.989548 15.2951269,1.13397 C15.291,1.22057 15.255,1.31439 15.172,1.39831 C11.956,5.51743 9.615,10.335 9.615,17.0149 C9.615,23.6924 11.956,28.4146 15.172,32.5332 C15.255,32.6165 15.291,32.7156 15.2951269,32.7981 C15.299,32.9433 15.208,33.0611 15.079,33.0611 C15.006,33.0611 14.921,33.0258 14.834,32.9346 L1.121,19.2769 C0.437,18.6745 7.10542736e-14,17.9709 7.10542736e-14,16.967 C7.10542736e-14,15.9613 0.437,15.257 1.121,14.6586 L14.834,0.99624 Z" id="Path" fill="#FD0202"></path>
        <path d="M26.361,-2.13162821e-14 C20.846,-2.13162821e-14 18.692,7.96291 18.692,17.4511 C18.692,26.944 20.846,34.8 26.361,34.8 C29.672,34.8 32.493,32.8248 32.502,31.2021 C32.502,30.8477 32.369,30.5088 32.077,30.2111 C30.509,28.6682 29.898,27.1246 29.888,25.763 C29.88,23.1627 32.096,21.2276 34.135,21.2276 C36.942,21.2276 38.596,23.4739 38.596,26.3819 C38.596,29.1376 37.442,31.4362 36.19,33.2733 C36.14,33.3484 36.119,33.4316 36.119,33.5053 C36.119,33.6473 36.202,33.7671 36.327,33.7671 C36.403,33.7671 36.492,33.7259 36.588,33.6278 L50.68,19.7495 C51.38,19.1375 51.831,18.4218 51.831,17.4024 C51.831,16.3802 51.38,15.6647 50.68,15.0565 L36.588,1.17356 C36.492,1.07826 36.403,1.0349 36.327,1.0349 C36.199,1.0349 36.119,1.15536 36.119,1.29938 C36.119,1.3738 36.14,1.45705 36.19,1.53348 C37.442,3.36931 38.596,5.66772 38.596,8.42013 C38.596,11.3274 36.942,13.5779 34.135,13.5779 C32.096,13.5779 29.88,11.6399 29.888,9.0397 C29.898,7.68076 30.509,6.13591 32.077,4.5936 C32.369,4.29459 32.502,3.95703 32.502,3.60126 C32.493,1.97718 29.672,-2.13162821e-14 26.361,-2.13162821e-14 Z" id="Path" fill="#1B51BF"></path>
    </g>
</svg>